<mxfile host="app.diagrams.net" agent="Mozilla/5.0 (Windows NT 10.0; Win64; x64) AppleWebKit/537.36 (KHTML, like Gecko) Chrome/136.0.0.0 Safari/537.36" version="27.0.4">
  <diagram name="第 1 页" id="ZfJp9wOOgkzBBenZ9gz3">
    <mxGraphModel dx="706" dy="387" grid="1" gridSize="10" guides="1" tooltips="1" connect="1" arrows="1" fold="1" page="1" pageScale="1" pageWidth="827" pageHeight="1169" math="0" shadow="0">
      <root>
        <mxCell id="0" />
        <mxCell id="1" parent="0" />
        <mxCell id="nA85lhXwjBj9LnQ69MAJ-1" value="" style="rounded=0;whiteSpace=wrap;html=1;fillColor=#dae8fc;strokeColor=none;" vertex="1" parent="1">
          <mxGeometry x="120" y="80" width="120" height="270" as="geometry" />
        </mxCell>
        <mxCell id="nA85lhXwjBj9LnQ69MAJ-2" value="手册清单" style="rounded=0;whiteSpace=wrap;html=1;fillColor=#fff2cc;strokeColor=#d6b656;" vertex="1" parent="1">
          <mxGeometry x="135" y="130" width="90" height="30" as="geometry" />
        </mxCell>
        <mxCell id="nA85lhXwjBj9LnQ69MAJ-3" value="手册资料管理" style="text;html=1;align=center;verticalAlign=middle;whiteSpace=wrap;rounded=0;" vertex="1" parent="1">
          <mxGeometry x="140" y="90" width="80" height="30" as="geometry" />
        </mxCell>
        <mxCell id="nA85lhXwjBj9LnQ69MAJ-4" value="手册分发" style="rounded=0;whiteSpace=wrap;html=1;fillColor=#fff2cc;strokeColor=#d6b656;" vertex="1" parent="1">
          <mxGeometry x="135" y="170" width="90" height="37" as="geometry" />
        </mxCell>
        <mxCell id="nA85lhXwjBj9LnQ69MAJ-5" value="作业日志" style="rounded=0;whiteSpace=wrap;html=1;fillColor=#fff2cc;strokeColor=#d6b656;" vertex="1" parent="1">
          <mxGeometry x="135" y="220" width="90" height="30" as="geometry" />
        </mxCell>
        <mxCell id="nA85lhXwjBj9LnQ69MAJ-6" value="资料发布" style="rounded=0;whiteSpace=wrap;html=1;fillColor=light-dark(#8699e4, #ededed);strokeColor=none;" vertex="1" parent="1">
          <mxGeometry x="135" y="260" width="90" height="35" as="geometry" />
        </mxCell>
        <mxCell id="nA85lhXwjBj9LnQ69MAJ-7" value="" style="rounded=0;whiteSpace=wrap;html=1;fillColor=#dae8fc;strokeColor=none;" vertex="1" parent="1">
          <mxGeometry x="250" y="80" width="140" height="270" as="geometry" />
        </mxCell>
        <mxCell id="nA85lhXwjBj9LnQ69MAJ-8" value="手册搜索" style="rounded=0;whiteSpace=wrap;html=1;fillColor=#fff2cc;strokeColor=#d6b656;" vertex="1" parent="1">
          <mxGeometry x="275" y="130" width="90" height="30" as="geometry" />
        </mxCell>
        <mxCell id="nA85lhXwjBj9LnQ69MAJ-9" value="手册资料库" style="text;html=1;align=center;verticalAlign=middle;whiteSpace=wrap;rounded=0;" vertex="1" parent="1">
          <mxGeometry x="280" y="90" width="80" height="30" as="geometry" />
        </mxCell>
        <mxCell id="nA85lhXwjBj9LnQ69MAJ-10" value="手册列表" style="rounded=0;whiteSpace=wrap;html=1;fillColor=light-dark(#8699e4, #ededed);strokeColor=none;" vertex="1" parent="1">
          <mxGeometry x="275" y="173.5" width="90" height="30" as="geometry" />
        </mxCell>
        <mxCell id="nA85lhXwjBj9LnQ69MAJ-11" value="TR列表" style="rounded=0;whiteSpace=wrap;html=1;fillColor=light-dark(#8699e4, #ededed);strokeColor=none;" vertex="1" parent="1">
          <mxGeometry x="275" y="220" width="90" height="30" as="geometry" />
        </mxCell>
        <mxCell id="nA85lhXwjBj9LnQ69MAJ-12" value="插页列表" style="rounded=0;whiteSpace=wrap;html=1;fillColor=light-dark(#8699e4, #ededed);strokeColor=none;" vertex="1" parent="1">
          <mxGeometry x="275" y="265" width="90" height="30" as="geometry" />
        </mxCell>
        <mxCell id="nA85lhXwjBj9LnQ69MAJ-13" value="参考资料" style="rounded=0;whiteSpace=wrap;html=1;fillColor=light-dark(#8699e4, #ededed);strokeColor=none;" vertex="1" parent="1">
          <mxGeometry x="275" y="310" width="90" height="30" as="geometry" />
        </mxCell>
        <mxCell id="nA85lhXwjBj9LnQ69MAJ-14" value="" style="rounded=0;whiteSpace=wrap;html=1;fillColor=#dae8fc;strokeColor=none;" vertex="1" parent="1">
          <mxGeometry x="400" y="80" width="240" height="270" as="geometry" />
        </mxCell>
        <mxCell id="nA85lhXwjBj9LnQ69MAJ-15" value="手册浏览" style="text;html=1;align=center;verticalAlign=middle;whiteSpace=wrap;rounded=0;" vertex="1" parent="1">
          <mxGeometry x="475" y="90" width="80" height="30" as="geometry" />
        </mxCell>
        <mxCell id="nA85lhXwjBj9LnQ69MAJ-16" value="PM&amp;amp;SNS浏览" style="rounded=0;whiteSpace=wrap;html=1;fillColor=light-dark(#8699e4, #ededed);strokeColor=none;" vertex="1" parent="1">
          <mxGeometry x="425" y="130" width="90" height="30" as="geometry" />
        </mxCell>
        <mxCell id="nA85lhXwjBj9LnQ69MAJ-17" value="插图浏览" style="rounded=0;whiteSpace=wrap;html=1;fillColor=light-dark(#8699e4, #ededed);strokeColor=none;" vertex="1" parent="1">
          <mxGeometry x="425" y="173.5" width="90" height="30" as="geometry" />
        </mxCell>
        <mxCell id="nA85lhXwjBj9LnQ69MAJ-18" value="三维插图" style="rounded=0;whiteSpace=wrap;html=1;fillColor=#fff2cc;strokeColor=#d6b656;" vertex="1" parent="1">
          <mxGeometry x="425" y="220" width="90" height="30" as="geometry" />
        </mxCell>
        <mxCell id="nA85lhXwjBj9LnQ69MAJ-19" value="DM跳转" style="rounded=0;whiteSpace=wrap;html=1;fillColor=light-dark(#8699e4, #ededed);strokeColor=none;" vertex="1" parent="1">
          <mxGeometry x="530" y="130" width="90" height="30" as="geometry" />
        </mxCell>
        <mxCell id="nA85lhXwjBj9LnQ69MAJ-20" value="DM对比" style="rounded=0;whiteSpace=wrap;html=1;fillColor=light-dark(#8699e4, #ededed);strokeColor=none;" vertex="1" parent="1">
          <mxGeometry x="530" y="173.5" width="90" height="30" as="geometry" />
        </mxCell>
        <mxCell id="nA85lhXwjBj9LnQ69MAJ-21" value="DM打印" style="rounded=0;whiteSpace=wrap;html=1;fillColor=#fff2cc;strokeColor=#d6b656;" vertex="1" parent="1">
          <mxGeometry x="530" y="220" width="90" height="30" as="geometry" />
        </mxCell>
        <mxCell id="nA85lhXwjBj9LnQ69MAJ-22" value="动态布线" style="rounded=0;whiteSpace=wrap;html=1;fillColor=#fff2cc;strokeColor=#d6b656;" vertex="1" parent="1">
          <mxGeometry x="425" y="265" width="90" height="30" as="geometry" />
        </mxCell>
        <mxCell id="nA85lhXwjBj9LnQ69MAJ-24" value="问题反馈" style="rounded=0;whiteSpace=wrap;html=1;fillColor=#fff2cc;strokeColor=#d6b656;" vertex="1" parent="1">
          <mxGeometry x="530" y="265" width="90" height="30" as="geometry" />
        </mxCell>
        <mxCell id="nA85lhXwjBj9LnQ69MAJ-25" value="" style="rounded=0;whiteSpace=wrap;html=1;fillColor=#dae8fc;strokeColor=none;" vertex="1" parent="1">
          <mxGeometry x="120" y="370" width="520" height="90" as="geometry" />
        </mxCell>
        <mxCell id="nA85lhXwjBj9LnQ69MAJ-26" value="个人中心" style="text;html=1;align=center;verticalAlign=middle;whiteSpace=wrap;rounded=0;" vertex="1" parent="1">
          <mxGeometry x="334" y="380" width="80" height="30" as="geometry" />
        </mxCell>
        <mxCell id="nA85lhXwjBj9LnQ69MAJ-27" value="最近浏览" style="rounded=0;whiteSpace=wrap;html=1;fillColor=light-dark(#8699e4, #ededed);strokeColor=none;" vertex="1" parent="1">
          <mxGeometry x="140" y="410" width="90" height="30" as="geometry" />
        </mxCell>
        <mxCell id="nA85lhXwjBj9LnQ69MAJ-28" value="我的收藏" style="rounded=0;whiteSpace=wrap;html=1;fillColor=light-dark(#8699e4, #ededed);strokeColor=none;" vertex="1" parent="1">
          <mxGeometry x="260" y="410" width="90" height="30" as="geometry" />
        </mxCell>
        <mxCell id="nA85lhXwjBj9LnQ69MAJ-29" value="我的打印" style="rounded=0;whiteSpace=wrap;html=1;fillColor=light-dark(#8699e4, #ededed);strokeColor=none;" vertex="1" parent="1">
          <mxGeometry x="520" y="410" width="90" height="30" as="geometry" />
        </mxCell>
        <mxCell id="nA85lhXwjBj9LnQ69MAJ-30" value="我的反馈" style="rounded=0;whiteSpace=wrap;html=1;fillColor=light-dark(#8699e4, #ededed);strokeColor=none;" vertex="1" parent="1">
          <mxGeometry x="385" y="410" width="90" height="30" as="geometry" />
        </mxCell>
        <mxCell id="nA85lhXwjBj9LnQ69MAJ-31" value="" style="rounded=0;whiteSpace=wrap;html=1;fillColor=#dae8fc;strokeColor=none;" vertex="1" parent="1">
          <mxGeometry x="660" y="80" width="180" height="380" as="geometry" />
        </mxCell>
        <mxCell id="nA85lhXwjBj9LnQ69MAJ-32" value="支持模块" style="text;html=1;align=center;verticalAlign=middle;whiteSpace=wrap;rounded=0;" vertex="1" parent="1">
          <mxGeometry x="710" y="90" width="80" height="30" as="geometry" />
        </mxCell>
        <mxCell id="nA85lhXwjBj9LnQ69MAJ-33" value="账号管理" style="rounded=0;whiteSpace=wrap;html=1;fillColor=light-dark(#8699e4, #ededed);strokeColor=none;" vertex="1" parent="1">
          <mxGeometry x="675" y="130" width="65" height="30" as="geometry" />
        </mxCell>
        <mxCell id="nA85lhXwjBj9LnQ69MAJ-34" value="租户管理" style="rounded=0;whiteSpace=wrap;html=1;fillColor=light-dark(#8699e4, #ededed);strokeColor=none;" vertex="1" parent="1">
          <mxGeometry x="760" y="130" width="65" height="30" as="geometry" />
        </mxCell>
        <mxCell id="nA85lhXwjBj9LnQ69MAJ-35" value="机队管理" style="rounded=0;whiteSpace=wrap;html=1;fillColor=light-dark(#8699e4, #ededed);strokeColor=none;" vertex="1" parent="1">
          <mxGeometry x="675" y="173.5" width="65" height="30" as="geometry" />
        </mxCell>
      </root>
    </mxGraphModel>
  </diagram>
</mxfile>
